<svg width="92" height="25" viewBox="0 0 92 25" fill="none" xmlns="http://www.w3.org/2000/svg">
<path d="M4.88 11.88H0.24V9.76H12.14V11.88H7.48V24H4.88V11.88ZM16.7408 24.16C15.7141 24.16 14.8074 23.9467 14.0208 23.52C13.2474 23.0933 12.6474 22.4867 12.2208 21.7C11.8074 20.9 11.6008 19.9667 11.6008 18.9C11.6008 17.8333 11.8074 16.9067 12.2208 16.12C12.6474 15.32 13.2474 14.7067 14.0208 14.28C14.8074 13.8533 15.7141 13.64 16.7408 13.64C17.7541 13.64 18.6474 13.8533 19.4208 14.28C20.1941 14.7067 20.7874 15.32 21.2008 16.12C21.6274 16.9067 21.8408 17.8333 21.8408 18.9C21.8408 19.9667 21.6274 20.9 21.2008 21.7C20.7874 22.4867 20.1941 23.0933 19.4208 23.52C18.6474 23.9467 17.7541 24.16 16.7408 24.16ZM16.7208 22.2C17.5741 22.2 18.2208 21.9267 18.6608 21.38C19.1141 20.82 19.3408 19.9933 19.3408 18.9C19.3408 17.82 19.1141 17 18.6608 16.44C18.2074 15.8667 17.5674 15.58 16.7408 15.58C15.9008 15.58 15.2541 15.8667 14.8008 16.44C14.3474 17 14.1208 17.82 14.1208 18.9C14.1208 19.9933 14.3408 20.82 14.7808 21.38C15.2341 21.9267 15.8808 22.2 16.7208 22.2ZM33.1967 13.9V24H30.7567V22.44C30.4367 23 30.0101 23.4267 29.4767 23.72C28.9434 24.0133 28.3301 24.16 27.6367 24.16C25.1701 24.16 23.9367 22.7733 23.9367 20V13.9H26.4167V20.02C26.4167 20.7533 26.5634 21.2933 26.8567 21.64C27.1634 21.9867 27.6301 22.16 28.2567 22.16C28.9901 22.16 29.5767 21.92 30.0167 21.44C30.4567 20.96 30.6767 20.32 30.6767 19.52V13.9H33.1967ZM40.4908 24.16C39.4374 24.16 38.5241 23.9467 37.7508 23.52C36.9774 23.0933 36.3841 22.4933 35.9708 21.72C35.5574 20.9333 35.3508 20.0133 35.3508 18.96C35.3508 17.9067 35.5641 16.98 35.9908 16.18C36.4308 15.38 37.0441 14.76 37.8308 14.32C38.6308 13.8667 39.5508 13.64 40.5908 13.64C41.3108 13.64 42.0041 13.7533 42.6708 13.98C43.3508 14.2067 43.8908 14.52 44.2908 14.92L43.5908 16.68C43.1641 16.3333 42.7108 16.0733 42.2308 15.9C41.7508 15.7133 41.2774 15.62 40.8108 15.62C39.9041 15.62 39.1974 15.9067 38.6908 16.48C38.1841 17.04 37.9308 17.8533 37.9308 18.92C37.9308 19.9867 38.1774 20.8 38.6708 21.36C39.1774 21.92 39.8908 22.2 40.8108 22.2C41.2774 22.2 41.7508 22.1067 42.2308 21.92C42.7108 21.7333 43.1641 21.4667 43.5908 21.12L44.2908 22.88C43.8641 23.28 43.3108 23.5933 42.6308 23.82C41.9508 24.0467 41.2374 24.16 40.4908 24.16ZM51.7494 13.64C54.1627 13.64 55.3694 15.0267 55.3694 17.8V24H52.8694V17.92C52.8694 17.12 52.716 16.54 52.4094 16.18C52.1027 15.8067 51.6294 15.62 50.9894 15.62C50.2294 15.62 49.616 15.8667 49.1494 16.36C48.6827 16.84 48.4494 17.48 48.4494 18.28V24H45.9694V9.28H48.4494V15.36C48.796 14.8133 49.256 14.3933 49.8294 14.1C50.4027 13.7933 51.0427 13.64 51.7494 13.64ZM70.2002 9.76V24H68.2802L60.6002 14.02V24H58.2002V9.76H60.1202L67.7802 19.72V9.76H70.2002ZM87.2744 15.78V20.3C87.2744 21.4867 87.8277 22.08 88.9344 22.08C89.241 22.08 89.5744 22.0267 89.9344 21.92V23.9C89.4944 24.06 88.961 24.14 88.3344 24.14C87.1877 24.14 86.3077 23.82 85.6944 23.18C85.081 22.54 84.7744 21.62 84.7744 20.42V15.78H82.8344V13.9H84.7744V11.44L87.2744 10.6V13.9H89.9544V15.78H87.2744Z" fill="#10182F"/>
<g filter="url(#filter0_b)">
<circle cx="77" cy="19" r="5" fill="#10182F" fill-opacity="0.1"/>
</g>
<g filter="url(#filter1_b)">
<circle cx="77" cy="14" r="5" fill="#10182F"/>
</g>
<defs>
<filter id="filter0_b" x="68" y="10" width="18" height="18" filterUnits="userSpaceOnUse" color-interpolation-filters="sRGB">
<feFlood flood-opacity="0" result="BackgroundImageFix"/>
<feGaussianBlur in="BackgroundImage" stdDeviation="2"/>
<feComposite in2="SourceAlpha" operator="in" result="effect1_backgroundBlur"/>
<feBlend mode="normal" in="SourceGraphic" in2="effect1_backgroundBlur" result="shape"/>
</filter>
<filter id="filter1_b" x="68" y="5" width="18" height="18" filterUnits="userSpaceOnUse" color-interpolation-filters="sRGB">
<feFlood flood-opacity="0" result="BackgroundImageFix"/>
<feGaussianBlur in="BackgroundImage" stdDeviation="2"/>
<feComposite in2="SourceAlpha" operator="in" result="effect1_backgroundBlur"/>
<feBlend mode="normal" in="SourceGraphic" in2="effect1_backgroundBlur" result="shape"/>
</filter>
</defs>
</svg>
